<?xml version="1.0" encoding="UTF-8"?>
<svg version="1.1" xmlns="http://www.w3.org/2000/svg" width="50" height="50">
<path d="M0 0 C0.76691666 -0.0066568 1.53383331 -0.0133136 2.32398987 -0.02017212 C3.94716999 -0.03030365 5.57039181 -0.03498898 7.19360352 -0.03466797 C9.67859463 -0.03903996 12.1618079 -0.07534726 14.64648438 -0.11328125 C16.22265017 -0.11914957 17.79882441 -0.12311886 19.375 -0.125 C20.11882431 -0.13937103 20.86264862 -0.15374207 21.62901306 -0.16854858 C24.74186176 -0.14095069 26.74640529 -0.06687491 29.22802734 1.90283203 C30.65173913 5.27948879 30.59045561 8.06579146 30.546875 11.7265625 C30.54263016 12.43117615 30.53838531 13.13578979 30.53401184 13.86175537 C30.51727163 16.10354462 30.47963029 18.34442181 30.44140625 20.5859375 C30.42635329 22.10936198 30.41266595 23.63280061 30.40039062 25.15625 C30.36738416 28.88310691 30.31563479 32.60943313 30.25390625 36.3359375 C31.53265625 36.2946875 32.81140625 36.2534375 34.12890625 36.2109375 C36.30859375 36.140625 36.30859375 36.140625 38.25390625 36.3359375 C40.25390625 38.3359375 40.25390625 38.3359375 40.51953125 40.6484375 C40.514375 41.5353125 40.50921875 42.4221875 40.50390625 43.3359375 C40.51164062 44.66625 40.51164062 44.66625 40.51953125 46.0234375 C40.25390625 48.3359375 40.25390625 48.3359375 38.25390625 50.3359375 C35.49248692 50.56028986 32.83425203 50.66408424 30.0703125 50.671875 C29.25900375 50.6785318 28.44769501 50.6851886 27.61180115 50.69204712 C25.89446279 50.70218 24.17708501 50.70686394 22.4597168 50.70654297 C19.82990743 50.71091505 17.20177769 50.74722231 14.57226562 50.78515625 C12.90495367 50.79102449 11.23763372 50.79499384 9.5703125 50.796875 C8.3889547 50.81843155 8.3889547 50.81843155 7.18373108 50.84042358 C3.97948917 50.81356497 1.82514722 50.78314713 -0.74755859 48.76904297 C-2.13307152 45.39299852 -2.08247041 42.59157663 -2.0390625 38.9453125 C-2.03481766 38.24069885 -2.03057281 37.53608521 -2.02619934 36.81011963 C-2.00945913 34.56833038 -1.97181779 32.32745319 -1.93359375 30.0859375 C-1.91854079 28.56251302 -1.90485345 27.03907439 -1.89257812 25.515625 C-1.85957166 21.78876809 -1.80782229 18.06244187 -1.74609375 14.3359375 C-2.69484375 14.3771875 -3.64359375 14.4184375 -4.62109375 14.4609375 C-7.74609375 14.3359375 -7.74609375 14.3359375 -9.74609375 12.3359375 C-10.01171875 10.0234375 -10.01171875 10.0234375 -9.99609375 7.3359375 C-10.00125 6.4490625 -10.00640625 5.5621875 -10.01171875 4.6484375 C-9.36134904 -1.0136047 -4.50218342 0.01343473 0 0 Z M-6.74609375 4.3359375 C-7.07942708 7.3359375 -7.07942708 7.3359375 -6.74609375 10.3359375 C-4.93841505 12.56725617 -4.93841505 12.56725617 -2.40771484 12.56298828 C-0.97806396 12.54727783 -0.97806396 12.54727783 0.48046875 12.53125 C1.51171875 12.52480469 2.54296875 12.51835937 3.60546875 12.51171875 C4.68570312 12.49496094 5.7659375 12.47820313 6.87890625 12.4609375 C8.51085937 12.44740234 8.51085937 12.44740234 10.17578125 12.43359375 C12.86858274 12.40997268 15.5612716 12.37410083 18.25390625 12.3359375 C18.25390625 9.0359375 18.25390625 5.7359375 18.25390625 2.3359375 C14.46205242 2.28219469 10.67095327 2.24238813 6.87890625 2.2109375 C5.79867188 2.19417969 4.7184375 2.17742188 3.60546875 2.16015625 C2.05859375 2.15048828 2.05859375 2.15048828 0.48046875 2.140625 C-0.47263184 2.13015137 -1.42573242 2.11967773 -2.40771484 2.10888672 C-4.93841505 2.10461883 -4.93841505 2.10461883 -6.74609375 4.3359375 Z M22.25390625 3.3359375 C20.93739287 4.43294934 20.93739287 4.43294934 21.06640625 7.1484375 C21.05968215 10.60402147 21.05968215 10.60402147 23.25390625 14.3359375 C15.66390625 14.3359375 8.07390625 14.3359375 0.25390625 14.3359375 C0.19996763 18.73193486 0.16025945 23.12727046 0.12890625 27.5234375 C0.11214844 28.76931641 0.09539063 30.01519531 0.078125 31.29882812 C0.07167969 32.50087891 0.06523437 33.70292969 0.05859375 34.94140625 C0.04812012 36.04637451 0.03764648 37.15134277 0.02685547 38.28979492 C0.26113087 41.43286399 0.78553432 43.5556695 2.25390625 46.3359375 C5.65288298 48.60192198 6.81709798 48.57336404 10.796875 48.53125 C11.87001953 48.52480469 12.94316406 48.51835938 14.04882812 48.51171875 C15.16837891 48.49496094 16.28792969 48.47820313 17.44140625 48.4609375 C18.57255859 48.45191406 19.70371094 48.44289062 20.86914062 48.43359375 C23.66427453 48.41000612 26.4589847 48.3770905 29.25390625 48.3359375 C29.18099365 47.63138428 29.10808105 46.92683105 29.03295898 46.20092773 C28.16684154 37.0368223 28.21675084 27.98216025 28.38085938 18.78710938 C28.39181641 17.63919922 28.40277344 16.49128906 28.4140625 15.30859375 C28.43932007 13.76570679 28.43932007 13.76570679 28.46508789 12.19165039 C28.24106133 9.16224155 27.63726599 7.03293058 26.25390625 4.3359375 C24.26614749 3.35860093 24.26614749 3.35860093 22.25390625 3.3359375 Z M30.25390625 38.3359375 C30.58350841 43.35128802 30.58350841 43.35128802 33.25390625 47.3359375 C35.36211422 47.0174198 35.36211422 47.0174198 37.25390625 46.3359375 C37.42071734 43.41941576 37.42071734 43.41941576 37.25390625 40.3359375 C35.41506744 38.04865016 35.41506744 38.04865016 32.62890625 38.2109375 C31.45328125 38.2728125 31.45328125 38.2728125 30.25390625 38.3359375 Z " fill="#000000" transform="translate(9.74609375,-0.3359375)"/>
<path d="M0 0 C4.95 0 9.9 0 15 0 C15 0.66 15 1.32 15 2 C10.05 2 5.1 2 0 2 C0 1.34 0 0.68 0 0 Z " fill="#000000" transform="translate(19,39)"/>
<path d="M0 0 C4.95 0 9.9 0 15 0 C15 0.66 15 1.32 15 2 C10.05 2 5.1 2 0 2 C0 1.34 0 0.68 0 0 Z " fill="#000000" transform="translate(19,33)"/>
<path d="M0 0 C4.95 0 9.9 0 15 0 C15 0.66 15 1.32 15 2 C10.05 2 5.1 2 0 2 C0 1.34 0 0.68 0 0 Z " fill="#000000" transform="translate(19,27)"/>
<path d="M0 0 C4.95 0 9.9 0 15 0 C15 0.66 15 1.32 15 2 C10.05 2 5.1 2 0 2 C0 1.34 0 0.68 0 0 Z " fill="#000000" transform="translate(19,21)"/>
<path d="M0 0 C1.65 0 3.3 0 5 0 C5 0.66 5 1.32 5 2 C3.35 2 1.7 2 0 2 C0 1.34 0 0.68 0 0 Z " fill="#000000" transform="translate(13,39)"/>
<path d="M0 0 C1.65 0 3.3 0 5 0 C5 0.66 5 1.32 5 2 C3.35 2 1.7 2 0 2 C0 1.34 0 0.68 0 0 Z " fill="#000000" transform="translate(13,33)"/>
<path d="M0 0 C1.65 0 3.3 0 5 0 C5 0.66 5 1.32 5 2 C3.35 2 1.7 2 0 2 C0 1.34 0 0.68 0 0 Z " fill="#000000" transform="translate(13,27)"/>
<path d="M0 0 C1.65 0 3.3 0 5 0 C5 0.66 5 1.32 5 2 C3.35 2 1.7 2 0 2 C0 1.34 0 0.68 0 0 Z " fill="#000000" transform="translate(13,21)"/>
</svg>
